<?xml version="1.0" encoding="UTF-8" standalone="no"?>
<svg
   xmlns:dc="http://purl.org/dc/elements/1.1/"
   xmlns:cc="http://creativecommons.org/ns#"
   xmlns:rdf="http://www.w3.org/1999/02/22-rdf-syntax-ns#"
   xmlns:svg="http://www.w3.org/2000/svg"
   xmlns="http://www.w3.org/2000/svg"
   xmlns:sodipodi="http://sodipodi.sourceforge.net/DTD/sodipodi-0.dtd"
   xmlns:inkscape="http://www.inkscape.org/namespaces/inkscape"
   sodipodi:docname="Countdown Logo - SVG.svg"
   inkscape:version="1.0 (4035a4fb49, 2020-05-01)"
   id="svg190"
   version="1.1"
   viewBox="0 0 238.3457 49.632977"
   height="49.632977mm"
   width="238.3457mm">
  <defs
     id="defs184" />
  <sodipodi:namedview
     inkscape:window-maximized="0"
     inkscape:window-y="0"
     inkscape:window-x="32"
     inkscape:window-height="1055"
     inkscape:window-width="1424"
     showgrid="false"
     inkscape:document-rotation="0"
     inkscape:current-layer="layer1"
     inkscape:document-units="mm"
     inkscape:cy="222.36603"
     inkscape:cx="764.70279"
     inkscape:zoom="0.35"
     inkscape:pageshadow="2"
     inkscape:pageopacity="0.0"
     borderopacity="1.0"
     bordercolor="#666666"
     pagecolor="#ffffff"
     id="base" />
  <metadata
     id="metadata187">
    <rdf:RDF>
      <cc:Work
         rdf:about="">
        <dc:format>image/svg+xml</dc:format>
        <dc:type
           rdf:resource="http://purl.org/dc/dcmitype/StillImage" />
        <dc:title></dc:title>
      </cc:Work>
    </rdf:RDF>
  </metadata>
  <g
     transform="translate(96.494279,-89.332322)"
     id="layer1"
     inkscape:groupmode="layer"
     inkscape:label="Layer 1">
    <path
       id="path855"
       style="fill:#ffffff;fill-opacity:1;fill-rule:nonzero;stroke:none;stroke-width:0.352777"
       d="M 141.85124,113.42387 V 89.937688 h -8.13718 V 111.5933 l 0.1323,1.83057 z" />
    <path
       id="path859"
       style="fill:#ffffff;fill-opacity:1;fill-rule:nonzero;stroke:none;stroke-width:0.352777"
       d="m 126.51125,113.42387 h 0.3743 6.3119 l -6.81391,-23.486182 h -7.80167 v 23.486182 z" />
    <path
       id="path863"
       style="fill:#ffffff;fill-opacity:1;fill-rule:nonzero;stroke:none;stroke-width:0.352777"
       d="m 118.58201,114.87375 v 23.48618 h 8.13717 v -21.52121 l -0.11959,-1.96497 z" />
    <path
       id="path867"
       style="fill:#ffffff;fill-opacity:1;fill-rule:nonzero;stroke:none;stroke-width:0.352777"
       d="m 133.95096,114.87375 h -0.38629 -6.30731 l 6.92714,23.48618 h 7.66692 v -23.48618 z" />
    <path
       id="path871"
       style="fill:#ffffff;fill-opacity:1;fill-rule:nonzero;stroke:none;stroke-width:0.352777"
       d="m 98.279051,113.42387 h 0.3556 5.923489 l -0.0325,-0.35137 -3.02613,-23.134812 h -5.851169 l -3.16089,23.134812 -0.0367,0.35137 z" />
    <path
       id="path875"
       style="fill:#ffffff;fill-opacity:1;fill-rule:nonzero;stroke:none;stroke-width:0.352777"
       d="m 91.491851,113.42387 -0.013,-0.35137 -2.21932,-23.134812 h -8.67587 l 2.93582,23.486182 z" />
    <path
       id="path879"
       style="fill:#ffffff;fill-opacity:1;fill-rule:nonzero;stroke:none;stroke-width:0.352777"
       d="m 113.4347,113.42387 3.19687,-23.486182 h -8.60884 l -2.48849,23.134812 -0.0159,0.35137 z" />
    <path
       id="path891"
       style="fill:#ffffff;fill-opacity:1;fill-rule:nonzero;stroke:none;stroke-width:0.352777"
       d="m 65.787311,113.42387 v -12.12039 c 0,-2.824689 0.53799,-3.900661 2.1523,-3.900661 1.68099,0 2.15194,1.008591 2.15194,3.900661 v 12.12039 h 9.48267 v -12.59099 c 0,-7.868711 -4.64044,-11.500558 -11.63461,-11.500558 -6.99452,0 -11.63496,3.631847 -11.63496,11.500558 v 12.59099 z" />
    <path
       id="path895"
       style="fill:#ffffff;fill-opacity:1;fill-rule:nonzero;stroke:none;stroke-width:0.352777"
       d="m 70.091611,114.87375 v 11.71681 c 0,2.89207 -0.47096,3.90066 -2.1523,3.90066 -1.61396,0 -2.15194,-1.07632 -2.15194,-3.90066 v -11.71681 h -9.48267 v 12.59099 c 0,8.13753 4.57341,11.50056 11.63461,11.50056 6.92714,0 11.63496,-3.36303 11.63496,-11.50056 v -12.59099 z" />
    <path
       id="path899"
       style="fill:#ffffff;fill-opacity:1;fill-rule:nonzero;stroke:none;stroke-width:0.352777"
       d="m 43.796231,114.87375 v 11.44799 c 0,2.82469 -0.87453,3.96769 -2.69028,3.96769 h -1.47955 v -15.41568 h -9.14647 v 23.48618 h 11.02959 c 6.9268,0 11.76938,-2.9591 11.76938,-11.16401 v -12.32217 z" />
    <path
       id="path903"
       style="fill:#ffffff;fill-opacity:1;fill-rule:nonzero;stroke:none;stroke-width:0.352777"
       d="M 39.626291,113.42387 V 97.739016 h 1.47955 c 1.74837,0 2.69028,0.941564 2.69028,3.833634 v 11.85122 h 9.48267 v -12.32218 c 0,-8.204902 -4.64044,-11.164002 -11.56758,-11.164002 h -11.23139 v 23.486182 z" />
    <path
       id="path907"
       style="fill:#f1ff39;fill-opacity:1;fill-rule:nonzero;stroke:none;stroke-width:0.352777"
       d="m 12.926981,113.42387 h 9.14647 V 98.41141 h 5.78379 V 89.937688 H 7.1431914 v 8.473722 h 5.7837896 z" />
    <path
       id="path909"
       style="fill:#f1ff39;fill-opacity:1;fill-rule:nonzero;stroke:none;stroke-width:0.352777"
       d="m 12.926841,138.35986 h 9.14647 v -23.48618 h -9.14647 z" />
    <path
       id="path913"
       style="fill:#f1ff39;fill-opacity:1;fill-rule:nonzero;stroke:none;stroke-width:0.352777"
       d="m -10.7527,113.42387 h 0.374298 6.3119004 L -10.880759,89.937688 h -7.801326 v 23.486182 z" />
    <path
       id="path917"
       style="fill:#f1ff39;fill-opacity:1;fill-rule:nonzero;stroke:none;stroke-width:0.352777"
       d="M 4.5874514,113.42387 V 89.937688 h -8.137523 V 111.5933 l 0.132291,1.83057 z" />
    <path
       id="path921"
       style="fill:#f1ff39;fill-opacity:1;fill-rule:nonzero;stroke:none;stroke-width:0.352777"
       d="m -18.68212,114.87375 v 23.48618 h 8.137525 v -21.52121 l -0.119592,-1.96497 z" />
    <path
       id="path925"
       style="fill:#f1ff39;fill-opacity:1;fill-rule:nonzero;stroke:none;stroke-width:0.352777"
       d="m -3.3130396,114.87375 h -0.38594 -6.3076674 l 6.9271474,23.48618 h 7.666921 v -23.48618 z" />
    <path
       id="path927"
       style="fill:#f1ff39;fill-opacity:1;fill-rule:nonzero;stroke:none;stroke-width:0.352777"
       d="m -22.044728,89.937936 h -9.146469 v 23.486184 h 9.146469 z" />
    <path
       id="path929"
       style="fill:#f1ff39;fill-opacity:1;fill-rule:nonzero;stroke:none;stroke-width:0.352777"
       d="m -35.22627,89.937936 h -9.146468 v 23.486184 h 9.146468 z" />
    <path
       id="path933"
       style="fill:#f1ff39;fill-opacity:1;fill-rule:nonzero;stroke:none;stroke-width:0.352777"
       d="m -31.191091,114.87375 v 11.9186 c 0,2.62255 -0.403577,3.36267 -2.017535,3.36267 -1.546931,0 -2.017538,-0.80715 -2.017538,-3.36267 v -11.9186 h -9.146468 v 12.59099 c 0,8.13753 3.900664,11.50056 11.164006,11.50056 7.061552,0 11.164004,-3.36303 11.164004,-11.50056 v -12.59099 z" />
    <path
       id="path937"
       style="fill:#f1ff39;fill-opacity:1;fill-rule:nonzero;stroke:none;stroke-width:0.352777"
       d="m -61.186657,113.42387 v -12.12039 c 0,-2.824689 0.537985,-3.900661 2.151943,-3.900661 1.68134,0 2.152299,1.008591 2.152299,3.900661 v 12.12039 h 9.482666 v -12.59099 c 0,-7.868711 -4.64044,-11.500558 -11.634965,-11.500558 -6.99417,0 -11.63461,3.631847 -11.63461,11.500558 v 12.59099 z" />
    <path
       id="path941"
       style="fill:#f1ff39;fill-opacity:1;fill-rule:nonzero;stroke:none;stroke-width:0.352777"
       d="m -56.882521,114.87375 v 11.71681 c 0,2.89207 -0.470607,3.90066 -2.152298,3.90066 -1.613604,0 -2.151944,-1.07632 -2.151944,-3.90066 v -11.71681 h -9.482667 v 12.59099 c 0,8.13753 4.573411,11.50056 11.634611,11.50056 6.927146,0 11.634964,-3.36303 11.634964,-11.50056 v -12.59099 z" />
    <path
       id="path945"
       style="fill:#f1ff39;fill-opacity:1;fill-rule:nonzero;stroke:none;stroke-width:0.352777"
       d="m -87.011612,113.42387 v -12.05336 c 0,-2.891719 0.403578,-3.967691 1.950508,-3.967691 1.613958,0 2.017536,0.941563 2.017536,3.430061 v 9.21349 h 9.482666 V 99.958341 c 0,-7.39775 -4.169833,-10.626019 -11.433175,-10.626019 -6.994171,0 -11.500202,3.29565 -11.500202,11.231388 v 12.86016 z" />
    <path
       id="path949"
       style="fill:#f1ff39;fill-opacity:1;fill-rule:nonzero;stroke:none;stroke-width:0.352777"
       d="m -83.043744,126.92693 c -0.06703,2.55552 -0.470605,3.49709 -2.017536,3.49709 -1.613958,0 -1.950508,-0.94157 -1.950508,-3.90102 v -11.64943 h -9.482313 v 12.52397 c 0,8.2049 3.698875,11.56758 11.432821,11.56758 7.330722,0 11.432822,-2.95945 11.567583,-11.23139 v -10.82745 h -9.550047 z" />
    <path
       id="path953"
       style="fill:#ffffff;fill-opacity:1;fill-rule:nonzero;stroke:none;stroke-width:0.352777"
       d="m 92.298691,114.87375 -0.55104,5.26062 -0.20037,-5.26062 h -7.84649 l 2.93547,23.48618 h 8.40669 l 3.02648,-21.79002 0.11325,-1.69616 z" />
    <path
       id="path957"
       style="fill:#ffffff;fill-opacity:1;fill-rule:nonzero;stroke:none;stroke-width:0.352777"
       d="m 105.45208,114.87375 -0.254,5.52944 -0.50694,-5.52944 h -5.976409 l 0.0945,1.69616 3.026129,21.79002 h 8.20526 l 3.19651,-23.48618 z" />
  </g>
</svg>
