<svg xmlns="http://www.w3.org/2000/svg" width="161" height="36" fill="none" viewBox="0 0 161 36"><path fill="#E62B1E" d="M2.17958 31.7148L0.623023 29.4716H2.10635L2.93945 30.7077L3.76349 29.4716H5.20095L3.6446 31.6873L5.39328 34.2051H3.91016L2.92114 32.7129L1.93232 34.2051H0.476562L2.17958 31.7148Z"/><path fill="#fff" d="M11.5535 33.3633H6.92969V32.3835H11.5535V33.3633ZM11.5535 31.404H6.92969V30.4242H11.5535V31.404Z"/><path fill="#fff" d="M13.7969 29.4714H15.0969V34.2051H13.7969V29.4714ZM15.0969 28.7391H13.7969V27.6678H15.0969V28.7391Z"/><path fill="#fff" d="M15.9414 29.4714H17.1775V30.1307H17.205C17.5346 29.5996 18.1021 29.3433 18.6515 29.3433C20.0341 29.3433 20.3819 30.1215 20.3819 31.2933V34.2051H19.0819V31.5316C19.0819 30.7532 18.8529 30.3687 18.2488 30.3687C17.5438 30.3687 17.2417 30.7624 17.2417 31.7239V34.2051H15.9414V29.4714Z"/><path fill="#fff" d="M23.4329 30.3238C22.5812 30.3238 22.2883 31.0563 22.2883 31.8345C22.2883 32.576 22.6271 33.3542 23.4329 33.3542C24.2935 33.3542 24.5498 32.6036 24.5498 31.8252C24.5498 31.0563 24.2752 30.3238 23.4329 30.3238ZM24.5681 33.6017H24.5498C24.2476 34.1143 23.7167 34.334 23.1124 34.334C21.6842 34.334 20.9883 33.1072 20.9883 31.7979C20.9883 30.5252 21.6932 29.344 23.085 29.344C23.6433 29.344 24.1927 29.5822 24.4949 30.0492H24.4859H24.5042V27.6686H25.8042V34.2058H24.5681V33.6017Z"/><path fill="#fff" d="M29.7862 31.3309C29.6671 30.6716 29.3834 30.3238 28.7515 30.3238C27.9274 30.3238 27.6894 30.9648 27.6711 31.3309H29.7862ZM27.6711 32.155C27.7078 32.979 28.1105 33.3542 28.834 33.3542C29.3558 33.3542 29.7771 33.0339 29.8594 32.7408H31.0039C30.6376 33.858 29.8594 34.334 28.7881 34.334C27.2957 34.334 26.3711 33.3086 26.3711 31.8437C26.3711 30.4244 27.3507 29.344 28.7881 29.344C30.3996 29.344 31.178 30.6992 31.0862 32.155H27.6711Z"/><path fill="#fff" d="M35.1878 31.8526C35.1878 31.1018 34.8856 30.3236 34.0525 30.3236C33.2011 30.3236 32.9263 31.0835 32.9263 31.8526C32.9263 32.6218 33.2194 33.3541 34.0615 33.3541C34.9131 33.3541 35.1878 32.6218 35.1878 31.8526ZM31.6719 29.472H32.9079V30.0764H32.9263C33.2377 29.5728 33.7503 29.3439 34.3363 29.3439C35.8195 29.3439 36.488 30.5433 36.488 31.8892C36.488 33.1527 35.7921 34.3338 34.4096 34.3338C33.8418 34.3338 33.3017 34.0866 32.9904 33.6196H32.9721V35.8721H31.6719V29.472Z"/><path fill="#fff" d="M40.2666 31.3309C40.1475 30.6716 39.8639 30.3238 39.232 30.3238C38.4079 30.3238 38.1699 30.9648 38.1516 31.3309H40.2666ZM38.1516 32.155C38.1882 32.979 38.591 33.3542 39.3144 33.3542C39.8363 33.3542 40.2576 33.0339 40.3399 32.7408H41.4844C41.1181 33.858 40.3399 34.334 39.2686 34.334C37.7762 34.334 36.8516 33.3086 36.8516 31.8437C36.8516 30.4244 37.8311 29.344 39.2686 29.344C40.8801 29.344 41.6584 30.6992 41.5667 32.155H38.1516Z"/><path fill="#fff" d="M42.1523 29.4714H43.3884V30.1307H43.416C43.7455 29.5996 44.3131 29.3433 44.8625 29.3433C46.245 29.3433 46.5929 30.1215 46.5929 31.2933V34.2051H45.2928V31.5316C45.2928 30.7532 45.0639 30.3687 44.4597 30.3687C43.7548 30.3687 43.4526 30.7624 43.4526 31.7239V34.2051H42.1523V29.4714Z"/><path fill="#fff" d="M49.6399 30.3238C48.7883 30.3238 48.4954 31.0563 48.4954 31.8345C48.4954 32.576 48.8342 33.3542 49.6399 33.3542C50.5006 33.3542 50.7569 32.6036 50.7569 31.8252C50.7569 31.0563 50.4822 30.3238 49.6399 30.3238ZM50.7752 33.6017H50.7569C50.4547 34.1143 49.9238 34.334 49.3194 34.334C47.8912 34.334 47.1953 33.1072 47.1953 31.7979C47.1953 30.5252 47.9003 29.344 49.292 29.344C49.8503 29.344 50.3998 29.5822 50.7019 30.0492H50.6929H50.7112V27.6686H52.0112V34.2058H50.7752V33.6017Z"/><path fill="#fff" d="M55.9971 31.3309C55.878 30.6716 55.5943 30.3238 54.9624 30.3238C54.1384 30.3238 53.9004 30.9648 53.8821 31.3309H55.9971ZM53.8821 32.155C53.9187 32.979 54.3215 33.3542 55.0449 33.3542C55.5668 33.3542 55.9881 33.0339 56.0703 32.7408H57.2149C56.8485 33.858 56.0703 34.334 54.999 34.334C53.5067 34.334 52.582 33.3086 52.582 31.8437C52.582 30.4244 53.5616 29.344 54.999 29.344C56.6105 29.344 57.3889 30.6992 57.2972 32.155H53.8821Z"/><path fill="#fff" d="M57.8828 29.4714H59.1189V30.1307H59.1464C59.476 29.5996 60.0435 29.3433 60.593 29.3433C61.9755 29.3433 62.3233 30.1215 62.3233 31.2933V34.2051H61.0233V31.5316C61.0233 30.7532 60.7943 30.3687 60.1902 30.3687C59.4852 30.3687 59.1831 30.7624 59.1831 31.7239V34.2051H57.8828V29.4714Z"/><path fill="#fff" d="M64.775 29.4722H65.7272V30.3421H64.775V32.6859C64.775 33.1255 64.8848 33.2351 65.3242 33.2351C65.4616 33.2351 65.5898 33.2261 65.7272 33.1987V34.2149C65.5075 34.2515 65.2236 34.2607 64.9673 34.2607C64.1706 34.2607 63.4747 34.0777 63.4747 33.1345V30.3421H62.6875V29.4722H63.4747V28.053H64.775V29.4722Z"/><path fill="#fff" d="M66.2031 27.6678H67.5032V34.2051H66.2031V27.6678Z"/><path fill="#fff" d="M70.681 34.8008C70.3972 35.5608 69.9485 35.8721 69.0513 35.8721C68.7859 35.8721 68.5203 35.8538 68.2548 35.8262V34.7549C68.502 34.7734 68.7583 34.8098 69.0146 34.8008C69.4633 34.7549 69.6097 34.2879 69.4633 33.9127L67.7969 29.472H69.1887L70.26 32.7133H70.2783L71.3128 29.472H72.6587L70.681 34.8008Z"/><path fill="#fff" d="M77.5774 33.3542C78.4654 33.3542 78.731 32.5944 78.731 31.8435C78.731 31.0837 78.4654 30.3238 77.5774 30.3238C76.6984 30.3238 76.4329 31.0837 76.4329 31.8435C76.4329 32.5944 76.6984 33.3542 77.5774 33.3542ZM77.5774 29.344C79.0698 29.344 80.0312 30.3329 80.0312 31.8435C80.0312 33.3452 79.0698 34.334 77.5774 34.334C76.0941 34.334 75.1328 33.3452 75.1328 31.8435C75.1328 30.3329 76.0941 29.344 77.5774 29.344Z"/><path fill="#fff" d="M80.5 29.4714H81.7361V30.3504H81.7544C81.9924 29.7553 82.6333 29.3433 83.2651 29.3433C83.3566 29.3433 83.4664 29.3616 83.5489 29.3892V30.5977C83.4298 30.5701 83.2377 30.5518 83.082 30.5518C82.1298 30.5518 81.8003 31.2384 81.8003 32.0717V34.2051H80.5V29.4714Z"/><path fill="#fff" d="M87.1953 31.7792C87.1953 31.0101 86.9298 30.3234 86.0874 30.3234C85.3551 30.3234 85.0346 30.9644 85.0346 31.6693C85.0346 32.3467 85.2909 33.0885 86.0874 33.0885C86.8292 33.0885 87.1953 32.4566 87.1953 31.7792ZM88.4314 33.9033C88.4314 34.6814 88.1566 36 85.9776 36C85.0437 36 83.9543 35.5606 83.8901 34.4801H85.1811C85.3002 34.9653 85.6937 35.1303 86.1516 35.1303C86.8748 35.1303 87.2044 34.6358 87.1953 33.9582V33.3355H87.177C86.8932 33.83 86.3254 34.068 85.7579 34.068C84.3387 34.068 83.7344 32.9877 83.7344 31.6876C83.7344 30.4606 84.4395 29.3436 85.7671 29.3436C86.3896 29.3436 86.8656 29.5543 87.177 30.1035H87.1953V29.4718H88.4314V33.9033Z"/><path fill="#fff" d="M92.056 31.8894C91.8363 32.0817 91.3784 32.0908 90.9756 32.164C90.5727 32.2465 90.2065 32.3839 90.2065 32.8599C90.2065 33.3452 90.5819 33.4643 91.003 33.4643C92.0194 33.4643 92.056 32.6585 92.056 32.3747V31.8894ZM89.0529 30.9282C89.1261 29.7104 90.2156 29.344 91.2776 29.344C92.2207 29.344 93.356 29.5547 93.356 30.69V33.153C93.356 33.5832 93.4019 34.0137 93.521 34.2058H92.2024C92.1566 34.0594 92.1202 33.9037 92.1109 33.7481C91.6989 34.1785 91.0945 34.334 90.5177 34.334C89.6205 34.334 88.9062 33.8856 88.9062 32.9148C88.9062 31.8437 89.712 31.5872 90.5177 31.4774C91.3144 31.3583 92.056 31.3858 92.056 30.8549C92.056 30.2962 91.6713 30.214 91.2136 30.214C90.7191 30.214 90.3986 30.4153 90.353 30.9282H89.0529Z"/><path fill="#fff" d="M94.1797 29.4714H95.4158V30.1307H95.4433C95.7729 29.5996 96.3404 29.3433 96.8898 29.3433C98.2724 29.3433 98.6202 30.1215 98.6202 31.2933V34.2051H97.3202V31.5316C97.3202 30.7532 97.0912 30.3687 96.4871 30.3687C95.7821 30.3687 95.4799 30.7624 95.4799 31.7239V34.2051H94.1797V29.4714Z"/><path fill="#fff" d="M99.2773 29.4714H100.577V34.2051H99.2773V29.4714ZM100.578 28.7391H99.2775V27.6678H100.578V28.7391Z"/><path fill="#fff" d="M101.129 33.2253L103.592 30.4512H101.312V29.4714H105.304V30.4512L102.841 33.2253H105.478V34.2051H101.129V33.2253Z"/><path fill="#fff" d="M109.181 31.3309C109.062 30.6716 108.778 30.3238 108.146 30.3238C107.322 30.3238 107.084 30.9648 107.066 31.3309H109.181ZM107.066 32.155C107.102 32.979 107.505 33.3542 108.229 33.3542C108.75 33.3542 109.172 33.0339 109.254 32.7408H110.398C110.032 33.858 109.254 34.334 108.183 34.334C106.69 34.334 105.766 33.3086 105.766 31.8437C105.766 30.4244 106.745 29.344 108.183 29.344C109.794 29.344 110.572 30.6992 110.481 32.155H107.066Z"/><path fill="#fff" d="M113.308 30.3238C112.456 30.3238 112.164 31.0563 112.164 31.8345C112.164 32.576 112.502 33.3542 113.308 33.3542C114.169 33.3542 114.425 32.6036 114.425 31.8252C114.425 31.0563 114.15 30.3238 113.308 30.3238ZM114.444 33.6017H114.425C114.123 34.1143 113.592 34.334 112.988 34.334C111.559 34.334 110.863 33.1072 110.863 31.7979C110.863 30.5252 111.568 29.344 112.96 29.344C113.518 29.344 114.068 29.5822 114.37 30.0492H114.361H114.379V27.6686H115.679V34.2058H114.444V33.6017Z"/><path fill="#fff" d="M120.42 28.8763H118.461V27.6678H123.817V28.8763H121.858V34.2051H120.42V28.8763Z"/><path fill="#fff" d="M124.387 27.6678H129.276V28.8763H125.824V30.2774H128.992V31.3943H125.824V32.9966H129.349V34.2051H124.387V27.6678Z"/><path fill="#fff" d="M131.387 32.9966H132.668C133.502 32.9966 134.298 32.484 134.298 31.0372C134.298 29.7187 133.841 28.8765 132.412 28.8765H131.387V32.9966ZM129.949 27.6678H132.769C134.463 27.6678 135.736 28.7301 135.736 30.9C135.736 32.7952 134.765 34.2051 132.769 34.2051H129.949V27.6678Z"/><path fill="#fff" d="M141.962 31.3309C141.843 30.6716 141.559 30.3238 140.927 30.3238C140.103 30.3238 139.865 30.9648 139.847 31.3309H141.962ZM139.847 32.155C139.884 32.979 140.287 33.3542 141.01 33.3542C141.532 33.3542 141.953 33.0339 142.035 32.7408H143.18C142.814 33.858 142.035 34.334 140.964 34.334C139.472 34.334 138.547 33.3086 138.547 31.8437C138.547 30.4244 139.527 29.344 140.964 29.344C142.575 29.344 143.354 30.6992 143.262 32.155H139.847Z"/><path fill="#fff" d="M146.282 34.2051H144.835L143.215 29.4714H144.579L145.577 32.7034H145.595L146.593 29.4714H147.884L146.282 34.2051Z"/><path fill="#fff" d="M151.247 31.3309C151.128 30.6716 150.844 30.3238 150.213 30.3238C149.389 30.3238 149.151 30.9648 149.132 31.3309H151.247ZM149.132 32.155C149.169 32.979 149.572 33.3542 150.295 33.3542C150.817 33.3542 151.238 33.0339 151.32 32.7408H152.465C152.099 33.858 151.32 34.334 150.249 34.334C148.757 34.334 147.832 33.3086 147.832 31.8437C147.832 30.4244 148.812 29.344 150.249 29.344C151.861 29.344 152.639 30.6992 152.547 32.155H149.132Z"/><path fill="#fff" d="M153.133 29.4714H154.369V30.1307H154.396C154.726 29.5996 155.294 29.3433 155.843 29.3433C157.225 29.3433 157.574 30.1215 157.574 31.2933V34.2051H156.273V31.5316C156.273 30.7532 156.044 30.3687 155.44 30.3687C154.735 30.3687 154.433 30.7624 154.433 31.7239V34.2051H153.133V29.4714Z"/><path fill="#fff" d="M160.025 29.4722H160.977V30.3421H160.025V32.6859C160.025 33.1255 160.135 33.2351 160.574 33.2351C160.712 33.2351 160.84 33.2261 160.977 33.1987V34.2149C160.758 34.2515 160.474 34.2607 160.217 34.2607C159.421 34.2607 158.725 34.0777 158.725 33.1345V30.3421H157.938V29.4722H158.725V28.053H160.025V29.4722Z"/><path fill="#E62B1E" d="M6.10013 6.03972H0V0.460847H18.9V6.03972H12.8021V22.2275H6.10013V6.03972Z"/><path fill="#E62B1E" d="M19.9414 0.460847H38.2885V6.03972H26.6477V8.75213H38.2885V13.9365H26.6477V16.6491H38.2916V22.2275H19.9414V0.460847Z"/><path fill="#E62B1E" d="M46.12 16.6498H48.7427C52.9203 16.6498 53.5311 13.2648 53.5311 11.2201C53.5311 9.85074 53.102 6.04049 48.2544 6.04049H46.12V16.6498ZM39.4141 0.461617H50.4192C57.6737 0.461617 60.2374 5.82739 60.2374 11.3131C60.2374 17.9914 56.7009 22.2285 49.1097 22.2285H39.4141V0.461617Z"/><path fill="#E62B1E" d="M69.8761 13.8398L67.8304 10.4474L65.8353 13.8398H60.9219L65.5864 6.98046L61.0949 0.419149H66.0102L67.8304 3.66247L69.7027 0.419149H74.6166L70.1263 6.98046L74.791 13.8398H69.8761Z"/><path fill="#fff" d="M81.1367 0.546143H90.8935C92.8222 0.546143 94.377 1.09229 95.5578 2.18457C96.7387 3.26702 97.3291 4.79228 97.3291 6.76036C97.3291 8.45291 96.8027 9.92897 95.7497 11.1885C94.6968 12.4383 93.0781 13.0631 90.8935 13.0631H84.0741V22.2295H81.1367V0.546143ZM94.3622 6.77512C94.3622 5.18098 93.7718 4.09853 92.591 3.52779C91.9415 3.22273 91.0509 3.07021 89.9193 3.07021H84.0741V10.5834H89.9193C91.2379 10.5834 92.3056 10.3029 93.1223 9.74201C93.9489 9.1811 94.3622 8.19214 94.3622 6.77512Z"/><path fill="#fff" d="M101.3 0.546143H117.108V3.20305H104.163V9.78629H116.134V12.2956H104.163V19.6464H117.33V22.2295H101.3V0.546143Z"/><path fill="#fff" d="M123.101 15.233C123.17 16.463 123.46 17.4618 123.972 18.2294C124.946 19.6661 126.663 20.3844 129.123 20.3844C130.226 20.3844 131.229 20.227 132.135 19.9121C133.886 19.302 134.762 18.2097 134.762 16.6352C134.762 15.4544 134.393 14.613 133.655 14.1111C132.907 13.6191 131.736 13.1911 130.142 12.827L127.205 12.1627C125.286 11.7298 123.928 11.2525 123.131 10.731C121.753 9.82565 121.064 8.47259 121.064 6.6718C121.064 4.7234 121.738 3.12433 123.086 1.8746C124.435 0.624866 126.344 0 128.814 0C131.087 0 133.015 0.551063 134.6 1.65319C136.194 2.74547 136.991 4.49707 136.991 6.90797H134.231C134.083 5.7468 133.768 4.85624 133.286 4.2363C132.391 3.10465 130.87 2.53883 128.725 2.53883C126.993 2.53883 125.748 2.90292 124.991 3.63111C124.233 4.3593 123.854 5.20558 123.854 6.16994C123.854 7.2327 124.297 8.01009 125.182 8.50211C125.763 8.81701 127.077 9.21062 129.123 9.68296L132.164 10.3767C133.63 10.7113 134.762 11.1689 135.559 11.7494C136.937 12.763 137.626 14.2342 137.626 16.1629C137.626 18.5639 136.75 20.2811 134.998 21.3143C133.256 22.3476 131.229 22.8642 128.917 22.8642C126.221 22.8642 124.11 22.1754 122.585 20.7977C121.059 19.4299 120.311 17.575 120.341 15.233H123.101Z"/><path fill="#fff" d="M144.534 0.546143V13.9488C144.534 15.5232 144.829 16.832 145.419 17.8751C146.295 19.4496 147.771 20.2368 149.847 20.2368C152.337 20.2368 154.03 19.3856 154.925 17.6832C155.407 16.7582 155.648 15.5134 155.648 13.9488V0.546143H158.63V12.7237C158.63 15.3904 158.271 17.4421 157.552 18.8788C156.234 21.4964 153.744 22.8052 150.084 22.8052C146.423 22.8052 143.938 21.4964 142.629 18.8788C141.911 17.4421 141.552 15.3904 141.552 12.7237V0.546143H144.534Z"/></svg>