<svg width="71" height="24" viewBox="0 0 71 24" fill="none" xmlns="http://www.w3.org/2000/svg">
<path d="M1.5 0.5C0.671573 0.5 0 1.17157 0 2C0 2.82843 0.671573 3.5 1.5 3.5V0.5ZM53 3.5C53.8284 3.5 54.5 2.82843 54.5 2C54.5 1.17157 53.8284 0.5 53 0.5V3.5ZM1.5 10.5C0.671573 10.5 0 11.1716 0 12C0 12.8284 0.671573 13.5 1.5 13.5V10.5ZM69.5 13.5C70.3284 13.5 71 12.8284 71 12C71 11.1716 70.3284 10.5 69.5 10.5V13.5ZM1.5 20.5C0.671573 20.5 0 21.1716 0 22C0 22.8284 0.671573 23.5 1.5 23.5V20.5ZM39.5 23.5C40.3284 23.5 41 22.8284 41 22C41 21.1716 40.3284 20.5 39.5 20.5V23.5ZM1.5 3.5H53V0.5H1.5V3.5ZM1.5 13.5H69.5V10.5H1.5V13.5ZM1.5 23.5H39.5V20.5H1.5V23.5Z" fill="black"/>
</svg>
