<svg width="72" height="24" viewBox="0 0 72 24" fill="none" xmlns="http://www.w3.org/2000/svg">
<path d="M2 0.5C1.17157 0.5 0.5 1.17157 0.5 2C0.5 2.82843 1.17157 3.5 2 3.5V0.5ZM53.5 3.5C54.3284 3.5 55 2.82843 55 2C55 1.17157 54.3284 0.5 53.5 0.5V3.5ZM2 10.5C1.17157 10.5 0.5 11.1716 0.5 12C0.5 12.8284 1.17157 13.5 2 13.5V10.5ZM70 13.5C70.8284 13.5 71.5 12.8284 71.5 12C71.5 11.1716 70.8284 10.5 70 10.5V13.5ZM2 20.5C1.17157 20.5 0.5 21.1716 0.5 22C0.5 22.8284 1.17157 23.5 2 23.5V20.5ZM40 23.5C40.8284 23.5 41.5 22.8284 41.5 22C41.5 21.1716 40.8284 20.5 40 20.5V23.5ZM2 3.5H53.5V0.5H2V3.5ZM2 13.5H70V10.5H2V13.5ZM2 23.5H40V20.5H2V23.5Z" fill="white"/>
</svg>
